<?xml version="1.0" encoding="UTF-8" standalone="no"?>
<!DOCTYPE svg PUBLIC "-//W3C//DTD SVG 1.1//EN"
"http://www.w3.org/Graphics/SVG/1.1/DTD/svg11.dtd">
<svg viewBox="0 0 1466 825" version="1.1" xmlns="http://www.w3.org/2000/svg" xmlns:xlink="http://www.w3.org/1999/xlink">
<defs>
<clipPath id="c0_4"><path d="M0,825V0H1466.6V825Z"/></clipPath>
<clipPath id="c1_4"><path d="M60,246.5V0H1414.3V246.5Z"/></clipPath>
<style type="text/css"><![CDATA[
.g0_4{
fill: #FFFFFF;
}
.g1_4{
fill: #D9D9D9;
fill-opacity: 0.3;
}
.g2_4{
fill: none;
stroke: #D9D9D9;
stroke-width: 1.125;
stroke-linecap: butt;
stroke-linejoin: miter;
stroke-miterlimit: 7;
stroke-opacity: 0.3;
}
.g3_4{
fill: #47ACC9;
}
.g4_4{
fill: none;
stroke: #E5E9F0;
stroke-width: 1.125;
stroke-linecap: butt;
stroke-linejoin: miter;
stroke-miterlimit: 7;
}
.g5_4{
fill: none;
stroke: #347F94;
stroke-width: 1.515;
stroke-linecap: butt;
stroke-linejoin: miter;
stroke-miterlimit: 7;
}
]]></style>
</defs>
<g clip-path="url(#c0_4)">
<path fill-rule="evenodd" d="M0,0H1466.6V825H0V0Z" class="g0_4"/>
<path fill-rule="evenodd" d="M0,0H1466.7V825H0V0Z" class="g0_4"/>
</g>
<path fill-rule="evenodd" d="M742.1,246H70.4V3.2H1413.8V246H742.1Z" class="g1_4"/>
<path d="M742.1,246H70.4V3.2H1413.8V246H742.1Z" class="g2_4"/>
<g clip-path="url(#c1_4)">
<path fill-rule="evenodd" d="M738.9,242.8H67.2V0H1410.6V242.8H738.9Z" class="g3_4"/>
<path d="M738.9,242.8H67.2V0H1410.6V242.8H738.9Z" class="g4_4"/>
<path fill-rule="evenodd" d="M739.2,241.9H68.2V0H1410.1V241.9H739.2Z" class="g3_4"/>
</g>
<path fill-rule="evenodd" d="M67.7,179.3H60V94.7H75.4v84.6H67.7Z" class="g3_4"/>
<path fill-rule="evenodd" d="M786.5,436.1h.1l-.4,-4.1l-.3,-4.1v-4.1l.2,-4.1l.3,-4.1l.6,-4.1l.7,-4l.9,-4l1.1,-3.9l1.3,-3.9l1.4,-3.7l1.7,-3.8l1.8,-3.5l1.9,-3.6l2.2,-3.3l2.3,-3.3l2.4,-3.1l2.6,-3l2.7,-2.9l2.9,-2.7l2.9,-2.5l3.1,-2.4l3.2,-2.2l3.3,-2l3.4,-1.8l3.4,-1.6l3.5,-1.5l3.6,-1.2l3.7,-1.1l3.7,-.8l3.7,-.7l3.7,-.4l3.8,-.2l3.8,-.1l3.7,.3l3.8,.3l3.7,.6l3.7,.9l3.7,1l3.6,1.2l3.5,1.4l3.5,1.6l3.3,1.8l3.3,2l1.5,-2.8l1.7,-2.9l1.7,-2.6l1.9,-2.6l2,-2.5l2.1,-2.4l2.2,-2.2l2.4,-2.2l2.3,-1.9l2.6,-1.9l2.5,-1.7l2.7,-1.5l2.8,-1.4l2.8,-1.3l2.8,-1l3,-1l2.9,-.7l3,-.6l3,-.4l3,-.2l3,-.1l3.1,.1l3,.2l3,.4l3,.7l2.9,.7l2.9,1l2.9,1.1l2.8,1.2l2.7,1.5l2.7,1.5l2.5,1.7l2.6,1.9l2.4,2l2.3,2.1l2.2,2.2l1.2,-2.3l1.2,-2.3l1.4,-2.2l1.4,-2.1l1.5,-2l1.7,-2l1.7,-1.8l1.8,-1.8l1.9,-1.7l2,-1.5l2,-1.5l2.1,-1.3l2.2,-1.2l2.2,-1.1l2.3,-1l2.3,-.8l2.3,-.7l2.4,-.6l2.4,-.4l2.4,-.4l2.4,-.2h2.5l2.4,.1l2.4,.2l2.4,.4l2.4,.4l2.3,.7l2.4,.7l2.3,.9l2.2,1l2.2,1.1l2.2,1.3l2,1.3l2.1,1.5l1.9,1.6l1.9,1.7l1.8,1.7l1.7,1.9l1.6,2l1.5,2.1l1.8,-2.2l1.9,-2.1l2,-1.9l2,-1.9l2.2,-1.7l2.2,-1.7l2.3,-1.5l2.4,-1.3l2.4,-1.3l2.5,-1.1l2.5,-1l2.5,-.8l2.7,-.7l2.6,-.5l2.7,-.4l2.6,-.3l2.7,-.1h2.7l2.7,.2l2.6,.4l2.6,.4l2.7,.6l2.5,.8l2.6,.9l2.5,1l2.5,1.2l2.4,1.3l2.3,1.4l2.2,1.6l2.3,1.6l2,1.8l2.1,1.9l1.9,2l1.8,2.2l1.8,2.2l1.6,2.3l1.5,2.4l1.5,2.5l1.3,2.5l1.1,2.7l1.1,2.6l.9,2.8l.8,2.7l.7,2.9l.5,2.8v.1l2.9,.9l2.9,1.1l2.7,1.3l2.8,1.4l2.7,1.6l2.6,1.8l2.4,1.9l2.5,2l2.2,2.1l2.3,2.3l2,2.4l2,2.5l1.8,2.6l1.8,2.7l1.6,2.8l1.5,2.9l1.3,3l1.1,3.1l1.1,3.1l.8,3.2l.8,3.2l.6,3.2l.4,3.3l.2,3.3l.1,3.4v3.3l-.2,3.2l-.4,3.3l-.5,3.3l-.7,3.2l-.8,3.2l-.9,3.2l-1.2,3v.1l2.2,3.3l2.1,3.4l1.9,3.6l1.7,3.7l1.6,3.7l1.4,3.8l1.2,3.9l1,4l.8,4l.7,4.1l.4,4.1l.3,4.1l.1,4.1l-.2,4.1l-.3,4.1l-.5,4.1l-.6,4l-1,4.1l-1,3.9l-1.2,3.9l-1.5,3.8l-1.6,3.7l-1.8,3.7l-1.9,3.5l-2.1,3.5l-2.2,3.2l-2.5,3.2l-2.5,3.1l-2.7,2.8L1192,557l-3,2.6l-3,2.4l-3.2,2.2l-3.3,2.1l-3.3,1.8l-3.5,1.7l-3.5,1.6l-3.6,1.2l-3.6,1.1l-3.7,.9l-3.7,.7h-.1l-.1,3.5l-.3,3.5l-.4,3.5l-.6,3.4l-.7,3.4l-.9,3.3l-1.1,3.3l-1.2,3.3l-1.3,3.1l-1.6,3.1l-1.6,3.1l-1.8,2.9l-1.9,2.7l-2,2.8l-2.2,2.5l-2.3,2.5l-2.4,2.3l-2.5,2.2l-2.6,2.1l-2.7,1.9l-2.7,1.7l-2.8,1.6l-3,1.5l-3,1.3l-3,1.1l-3.1,.9l-3.1,.8l-3.2,.6l-3.2,.4l-3.2,.3l-3.2,.1l-3.2,-.1l-3.2,-.3l-3.2,-.4l-3.1,-.7l-3.1,-.8l-3.1,-.9l-3,-1.2l-3,-1.3l-2.9,-1.4l-2.9,-1.6l-2.8,-1.8l-1.2,3.9l-1.4,3.9l-1.6,3.8l-1.7,3.7l-1.9,3.6l-2.1,3.5l-2.2,3.4l-2.4,3.2l-2.5,3.1l-2.7,2.9l-2.8,2.8l-3,2.7l-3,2.5l-3.2,2.3l-3.3,2l-3.4,2l-3.4,1.7l-3.5,1.6l-3.6,1.3l-3.7,1.1l-3.7,.9l-3.8,.8l-3.7,.5l-3.8,.3l-3.9,.1l-3.7,-.2l-3.8,-.3l-3.8,-.6l-3.7,-.8l-3.8,-.9l-3.6,-1.2l-3.6,-1.4l-3.5,-1.6l-3.4,-1.8l-3.4,-1.9l-3.2,-2.2l-3.2,-2.3l-3,-2.5l-2.9,-2.7l-2.8,-2.9l-2.6,-2.9l-2.6,-3.2l-2.3,-3.3l-2.2,-3.3l-.1,-.1l-3.7,2.4l-3.9,2.1l-4,1.9l-4.1,1.7l-4.1,1.4l-4.2,1.3l-4.3,1l-4.3,.7l-4.3,.5l-4.4,.2H879l-4.3,-.2l-4.4,-.5l-4.3,-.7l-4.2,-1l-4.2,-1.2l-4.2,-1.4l-4.1,-1.6l-4,-1.9l-3.9,-2.1l-3.8,-2.4L834,652.7L830.4,650l-3.5,-3l-3.2,-3.1l-3.2,-3.3l-2.9,-3.5l-2.8,-3.6l-2.7,-3.9l-2.4,-3.9l-2.2,-4v-.1l-2.5,.2l-2.4,.2l-2.4,-.1l-2.5,-.1l-2.4,-.3l-2.4,-.4l-2.4,-.6l-2.3,-.7l-2.3,-.8l-2.3,-1l-2.2,-1l-2.2,-1.2l-2.1,-1.4L775,613.1l-2,-1.6l-1.9,-1.6l-1.8,-1.8l-1.7,-1.8l-1.7,-2l-1.5,-2l-1.5,-2.2L761.5,598l-1.2,-2.3l-1.2,-2.3l-1,-2.4l-1,-2.5l-.8,-2.4l-.7,-2.6l-.5,-2.5l-.5,-2.6l-.3,-2.7l-.2,-2.6l-.1,-2.7v-2.6l.2,-2.6l.3,-2.7l.4,-2.6l.5,-2.5l.7,-2.6l.7,-2.5l.9,-2.5l1,-2.4l1.1,-2.3l1.2,-2.3l1.3,-2.3l1.5,-2.1l1.5,-2.1l1.6,-1.9l.1,-.1l-2.1,-1.4l-2,-1.4L761,529.9l-1.8,-1.8l-1.7,-1.7l-1.7,-2l-1.6,-1.9l-1.4,-2.1l-1.4,-2.1L750.1,516l-1.2,-2.2l-1,-2.4l-1,-2.4l-.8,-2.4l-.8,-2.5l-.6,-2.6l-.6,-2.5l-.3,-2.6l-.3,-2.6l-.1,-2.7l-.1,-2.6l.1,-2.6l.2,-2.6l.4,-2.6l.4,-2.5l.6,-2.6l.7,-2.5l.7,-2.5l1,-2.5l1,-2.3l1.1,-2.3l1.2,-2.3l1.4,-2.1l1.4,-2.2l1.5,-2l1.6,-1.9l1.8,-1.9l1.7,-1.7l1.9,-1.6l1.9,-1.6l2,-1.4l2.1,-1.4l2.1,-1.2l2.2,-1.1l2.2,-.9l2.3,-.9l2.3,-.7l2.3,-.6l2.4,-.5l2.4,-.3l.3,-1.1Z" class="g3_4"/>
<path d="M786.5,436.1h.1l-.4,-4.1l-.3,-4.1v-4.1l.2,-4.1l.3,-4.1l.6,-4.1l.7,-4l.9,-4l1.1,-3.9l1.3,-3.9l1.4,-3.7l1.7,-3.8l1.8,-3.5l1.9,-3.6l2.2,-3.3l2.3,-3.3l2.4,-3.1l2.6,-3l2.7,-2.9l2.9,-2.7l2.9,-2.5l3.1,-2.4l3.2,-2.2l3.3,-2l3.4,-1.8l3.4,-1.6l3.5,-1.5l3.6,-1.2l3.7,-1.1l3.7,-.8l3.7,-.7l3.7,-.4l3.8,-.2l3.8,-.1l3.7,.3l3.8,.3l3.7,.6l3.7,.9l3.7,1l3.6,1.2l3.5,1.4l3.5,1.6l3.3,1.8l3.3,2l1.5,-2.8l1.7,-2.9l1.7,-2.6l1.9,-2.6l2,-2.5l2.1,-2.4l2.2,-2.2l2.4,-2.2l2.3,-1.9l2.6,-1.9l2.5,-1.7l2.7,-1.5l2.8,-1.4l2.8,-1.3l2.8,-1l3,-1l2.9,-.7l3,-.6l3,-.4l3,-.2l3,-.1l3.1,.1l3,.2l3,.4l3,.7l2.9,.7l2.9,1l2.9,1.1l2.8,1.2l2.7,1.5l2.7,1.5l2.5,1.7l2.6,1.9l2.4,2l2.3,2.1l2.2,2.2l1.2,-2.3l1.2,-2.3l1.4,-2.2l1.4,-2.1l1.5,-2l1.7,-2l1.7,-1.8l1.8,-1.8l1.9,-1.7l2,-1.5l2,-1.5l2.1,-1.3l2.2,-1.2l2.2,-1.1l2.3,-1l2.3,-.8l2.3,-.7l2.4,-.6l2.4,-.4l2.4,-.4l2.4,-.2h2.5l2.4,.1l2.4,.2l2.4,.4l2.4,.4l2.3,.7l2.4,.7l2.3,.9l2.2,1l2.2,1.1l2.2,1.3l2,1.3l2.1,1.5l1.9,1.6l1.9,1.7l1.8,1.7l1.7,1.9l1.6,2l1.5,2.1l1.8,-2.2l1.9,-2.1l2,-1.9l2,-1.9l2.2,-1.7l2.2,-1.7l2.3,-1.5l2.4,-1.3l2.4,-1.3l2.5,-1.1l2.5,-1l2.5,-.8l2.7,-.7l2.6,-.5l2.7,-.4l2.6,-.3l2.7,-.1h2.7l2.7,.2l2.6,.4l2.6,.4l2.7,.6l2.5,.8l2.6,.9l2.5,1l2.5,1.2l2.4,1.3l2.3,1.4l2.2,1.6l2.3,1.6l2,1.8l2.1,1.9l1.9,2l1.8,2.2l1.8,2.2l1.6,2.3l1.5,2.4l1.5,2.5l1.3,2.5l1.1,2.7l1.1,2.6l.9,2.8l.8,2.7l.7,2.9l.5,2.8v.1l2.9,.9l2.9,1.1l2.7,1.3l2.8,1.4l2.7,1.6l2.6,1.8l2.4,1.9l2.5,2l2.2,2.1l2.3,2.3l2,2.4l2,2.5l1.8,2.6l1.8,2.7l1.6,2.8l1.5,2.9l1.3,3l1.1,3.1l1.1,3.1l.8,3.2l.8,3.2l.6,3.2l.4,3.3l.2,3.3l.1,3.4v3.3l-.2,3.2l-.4,3.3l-.5,3.3l-.7,3.2l-.8,3.2l-.9,3.2l-1.2,3v.1l2.2,3.3l2.1,3.4l1.9,3.6l1.7,3.7l1.6,3.7l1.4,3.8l1.2,3.9l1,4l.8,4l.7,4.1l.4,4.1l.3,4.1l.1,4.1l-.2,4.1l-.3,4.1l-.5,4.1l-.6,4l-1,4.1l-1,3.9l-1.2,3.9l-1.5,3.8l-1.6,3.7l-1.8,3.7l-1.9,3.5l-2.1,3.5l-2.2,3.2l-2.5,3.2l-2.5,3.1l-2.7,2.8L1192,557l-3,2.6l-3,2.4l-3.2,2.2l-3.3,2.1l-3.3,1.8l-3.5,1.7l-3.5,1.6l-3.6,1.2l-3.6,1.1l-3.7,.9l-3.7,.7h-.1l-.1,3.5l-.3,3.5l-.4,3.5l-.6,3.4l-.7,3.4l-.9,3.3l-1.1,3.3l-1.2,3.3l-1.3,3.1l-1.6,3.1l-1.6,3.1l-1.8,2.9l-1.9,2.7l-2,2.8l-2.2,2.5l-2.3,2.5l-2.4,2.3l-2.5,2.2l-2.6,2.1l-2.7,1.9l-2.7,1.7l-2.8,1.6l-3,1.5l-3,1.3l-3,1.1l-3.1,.9l-3.1,.8l-3.2,.6l-3.2,.4l-3.2,.3l-3.2,.1l-3.2,-.1l-3.2,-.3l-3.2,-.4l-3.1,-.7l-3.1,-.8l-3.1,-.9l-3,-1.2l-3,-1.3l-2.9,-1.4l-2.9,-1.6l-2.8,-1.8l-1.2,3.9l-1.4,3.9l-1.6,3.8l-1.7,3.7l-1.9,3.6l-2.1,3.5l-2.2,3.4l-2.4,3.2l-2.5,3.1l-2.7,2.9l-2.8,2.8l-3,2.7l-3,2.5l-3.2,2.3l-3.3,2l-3.4,2l-3.4,1.7l-3.5,1.6l-3.6,1.3l-3.7,1.1l-3.7,.9l-3.8,.8l-3.7,.5l-3.8,.3l-3.9,.1l-3.7,-.2l-3.8,-.3l-3.8,-.6l-3.7,-.8l-3.8,-.9l-3.6,-1.2l-3.6,-1.4l-3.5,-1.6l-3.4,-1.8l-3.4,-1.9l-3.2,-2.2l-3.2,-2.3l-3,-2.5l-2.9,-2.7l-2.8,-2.9l-2.6,-2.9l-2.6,-3.2l-2.3,-3.3l-2.2,-3.3l-.1,-.1l-3.7,2.4l-3.9,2.1l-4,1.9l-4.1,1.7l-4.1,1.4l-4.2,1.3l-4.3,1l-4.3,.7l-4.3,.5l-4.4,.2H879l-4.3,-.2l-4.4,-.5l-4.3,-.7l-4.2,-1l-4.2,-1.2l-4.2,-1.4l-4.1,-1.6l-4,-1.9l-3.9,-2.1l-3.8,-2.4L834,652.7L830.4,650l-3.5,-3l-3.2,-3.1l-3.2,-3.3l-2.9,-3.5l-2.8,-3.6l-2.7,-3.9l-2.4,-3.9l-2.2,-4v-.1l-2.5,.2l-2.4,.2l-2.4,-.1l-2.5,-.1l-2.4,-.3l-2.4,-.4l-2.4,-.6l-2.3,-.7l-2.3,-.8l-2.3,-1l-2.2,-1l-2.2,-1.2l-2.1,-1.4L775,613.1l-2,-1.6l-1.9,-1.6l-1.8,-1.8l-1.7,-1.8l-1.7,-2l-1.5,-2l-1.5,-2.2L761.5,598l-1.2,-2.3l-1.2,-2.3l-1,-2.4l-1,-2.5l-.8,-2.4l-.7,-2.6l-.5,-2.5l-.5,-2.6l-.3,-2.7l-.2,-2.6l-.1,-2.7v-2.6l.2,-2.6l.3,-2.7l.4,-2.6l.5,-2.5l.7,-2.6l.7,-2.5l.9,-2.5l1,-2.4l1.1,-2.3l1.2,-2.3l1.3,-2.3l1.5,-2.1l1.5,-2.1l1.6,-1.9l.1,-.1l-2.1,-1.4l-2,-1.4L761,529.9l-1.8,-1.8l-1.7,-1.7l-1.7,-2l-1.6,-1.9l-1.4,-2.1l-1.4,-2.1L750.1,516l-1.2,-2.2l-1,-2.4l-1,-2.4l-.8,-2.4l-.8,-2.5l-.6,-2.6l-.6,-2.5l-.3,-2.6l-.3,-2.6l-.1,-2.7l-.1,-2.6l.1,-2.6l.2,-2.6l.4,-2.6l.4,-2.5l.6,-2.6l.7,-2.5l.7,-2.5l1,-2.5l1,-2.3l1.1,-2.3l1.2,-2.3l1.4,-2.1l1.4,-2.2l1.5,-2l1.6,-1.9l1.8,-1.9l1.7,-1.7l1.9,-1.6l1.9,-1.6l2,-1.4l2.1,-1.4l2.1,-1.2l2.2,-1.1l2.2,-.9l2.3,-.9l2.3,-.7l2.3,-.6l2.4,-.5l2.4,-.3l.3,-1.1ZM795.2,540l-1.9,.1h-3.9l-1.9,-.1l-1.9,-.3l-1.9,-.3l-1.9,-.4l-1.9,-.4l-1.8,-.6l-1.9,-.6l-1.8,-.7l-1.8,-.9l-1.7,-.8l-1.7,-1l-1.7,-1m52.3,83.8v-.1l-.8,.4l-.8,.3l-.8,.3l-.8,.3l-.8,.3l-.8,.2l-.8,.3l-.8,.2l-.8,.2l-.8,.2l-.8,.2l-.9,.1l-.8,.2l-.8,.1l-.9,.1m117.1,33.6l.1,-.1l-.6,-.9l-.6,-1l-.5,-1l-.6,-1l-.5,-1l-.5,-1l-.5,-1l-.5,-1l-.5,-1l-.5,-1l-.4,-1.1l-.4,-1l-.5,-1.1l-.3,-1.1l-.4,-1m143,-22.9h-.1l-.1,1.1l-.1,1.1l-.1,1.2l-.2,1.1l-.1,1.2l-.2,1.1l-.2,1.1l-.2,1.1l-.2,1.1l-.2,1.1l-.2,1.2l-.3,1l-.3,1.2l-.3,1.1l-.2,1m61.2,-120.5l3,1.7l2.9,1.9l2.9,2l2.7,2.3l2.6,2.3l2.5,2.5l2.4,2.7l2.2,2.8l2.1,3l2,3l1.7,3.1l1.7,3.3l1.5,3.4l1.2,3.4l1.2,3.5l1,3.5l.8,3.6l.6,3.7l.4,3.7l.2,3.6l.1,3.8M1203,444.8l-.1,-.1l-.7,1.8l-.8,1.8l-.8,1.7l-.9,1.7l-1,1.7l-.9,1.7l-1.1,1.6l-1,1.6l-1.1,1.5l-1.2,1.5l-1.2,1.5l-1.2,1.4l-1.3,1.4l-1.3,1.3l-1.4,1.3M1164.8,357.4l.1,.7l.1,.7l.1,.8l.1,.7l.1,.8l.1,.7v1.5l.1,.7v.7l.1,.8v3M1063.2,344.4l.4,-1l.5,-1l.4,-1l.5,-1l.5,-1l.5,-1l.5,-.9l.5,-1l.6,-.9l.6,-.9l.6,-.9l.6,-.9l.6,-.9l.7,-.9l.6,-.8M987,351.2l.1,-.8l.3,-.9l.1,-.8l.2,-.9l.3,-.8l.2,-.8l.3,-.9l.2,-.7l.3,-.9l.3,-.8l.3,-.8l.3,-.8l.3,-.8l.4,-.8l.3,-.7m-93.4,16.3l1.1,.7l1,.7l1,.7l1,.7l1,.8l1,.7l.9,.8l1,.8l.9,.8l.9,.8l1,.8l.8,.9l1,.9l.8,.9l.9,.9M789.1,448.6l-.3,-.8l-.2,-.9l-.2,-.8l-.2,-.8l-.2,-.8l-.2,-.9l-.1,-.8l-.2,-.8l-.1,-.9l-.2,-.8l-.1,-.8l-.2,-.9l-.1,-.8l-.1,-.8l-.1,-.9" class="g5_4"/>
</svg>