<?xml version="1.0" encoding="UTF-8" standalone="no"?>
<!DOCTYPE svg PUBLIC "-//W3C//DTD SVG 1.1//EN"
"http://www.w3.org/Graphics/SVG/1.1/DTD/svg11.dtd">
<svg viewBox="0 0 1466 825" version="1.1" xmlns="http://www.w3.org/2000/svg" xmlns:xlink="http://www.w3.org/1999/xlink">
<defs>
<clipPath id="c0_14"><path d="M0,825V0H1466.6V825Z"/></clipPath>
<clipPath id="c1_14"><path d="M60,246.5V0H1414.3V246.5Z"/></clipPath>
<style type="text/css"><![CDATA[
.g0_14{
fill: #FFFFFF;
}
.g1_14{
fill: #D9D9D9;
fill-opacity: 0.3;
}
.g2_14{
fill: none;
stroke: #D9D9D9;
stroke-width: 1.125;
stroke-linecap: butt;
stroke-linejoin: miter;
stroke-miterlimit: 7;
stroke-opacity: 0.3;
}
.g3_14{
fill: #47ACC9;
}
.g4_14{
fill: none;
stroke: #E5E9F0;
stroke-width: 1.125;
stroke-linecap: butt;
stroke-linejoin: miter;
stroke-miterlimit: 7;
}
.g5_14{
fill: #E8F1F5;
}
.g6_14{
fill: none;
stroke: #FFFFFF;
stroke-width: 1.298;
stroke-linecap: butt;
stroke-linejoin: round;
}
]]></style>
</defs>
<g clip-path="url(#c0_14)">
<path fill-rule="evenodd" d="M0,0H1466.6V825H0V0Z" class="g0_14"/>
<path fill-rule="evenodd" d="M0,0H1466.7V825H0V0Z" class="g0_14"/>
</g>
<path fill-rule="evenodd" d="M742.1,246H70.4V3.2H1413.8V246H742.1Z" class="g1_14"/>
<path d="M742.1,246H70.4V3.2H1413.8V246H742.1Z" class="g2_14"/>
<g clip-path="url(#c1_14)">
<path fill-rule="evenodd" d="M738.9,242.8H67.2V0H1410.6V242.8H738.9Z" class="g3_14"/>
<path d="M738.9,242.8H67.2V0H1410.6V242.8H738.9Z" class="g4_14"/>
<path fill-rule="evenodd" d="M739.2,241.9H68.2V0H1410.1V241.9H739.2Z" class="g3_14"/>
</g>
<path fill-rule="evenodd" d="M67.7,179.3H60V94.7H75.4v84.6H67.7Z" class="g3_14"/>
<path fill-rule="evenodd" d="M43.6,260.1H161.8v38H43.6v-38Z" class="g5_14"/>
<path fill-rule="evenodd" d="M161.8,260.1h52.6v38H161.8v-38Z" class="g5_14"/>
<path fill-rule="evenodd" d="M214.4,260.1h52.5v38H214.4v-38Z" class="g5_14"/>
<path fill-rule="evenodd" d="M266.9,260.1h52.5v38H266.9v-38Z" class="g5_14"/>
<path fill-rule="evenodd" d="M319.4,260.1H372v38H319.4v-38Z" class="g5_14"/>
<path fill-rule="evenodd" d="M372,260.1h52.5v38H372v-38Z" class="g5_14"/>
<path fill-rule="evenodd" d="M424.5,260.1H477v38H424.5v-38Z" class="g5_14"/>
<path fill-rule="evenodd" d="M477,260.1h52.6v38H477v-38Z" class="g5_14"/>
<path fill-rule="evenodd" d="M529.6,260.1h52.5v38H529.6v-38Z" class="g5_14"/>
<path fill-rule="evenodd" d="M582.1,260.1h52.5v38H582.1v-38Z" class="g5_14"/>
<path fill-rule="evenodd" d="M634.6,260.1h52.6v38H634.6v-38Z" class="g5_14"/>
<path fill-rule="evenodd" d="M687.2,260.1h52.5v38H687.2v-38Z" class="g5_14"/>
<path fill-rule="evenodd" d="M739.7,260.1h52.5v38H739.7v-38Z" class="g5_14"/>
<path fill-rule="evenodd" d="M792.2,260.1h52.5v38H792.2v-38Z" class="g5_14"/>
<path fill-rule="evenodd" d="M844.7,260.1h52.6v38H844.7v-38Z" class="g5_14"/>
<path fill-rule="evenodd" d="M897.3,260.1h52.5v38H897.3v-38Z" class="g5_14"/>
<path fill-rule="evenodd" d="M949.8,260.1h52.5v38H949.8v-38Z" class="g5_14"/>
<path fill-rule="evenodd" d="M1002.3,260.1h52.6v38h-52.6v-38Z" class="g5_14"/>
<path fill-rule="evenodd" d="M1054.9,260.1h52.5v38h-52.5v-38Z" class="g5_14"/>
<path fill-rule="evenodd" d="M1107.4,260.1h52.5v38h-52.5v-38Z" class="g5_14"/>
<path fill-rule="evenodd" d="M1159.9,260.1h52.6v38h-52.6v-38Z" class="g5_14"/>
<path fill-rule="evenodd" d="M1212.5,260.1H1265v38h-52.5v-38Z" class="g5_14"/>
<path fill-rule="evenodd" d="M1265,260.1h52.5v38H1265v-38Z" class="g5_14"/>
<path fill-rule="evenodd" d="M1317.5,260.1h52.6v38h-52.6v-38Z" class="g5_14"/>
<path fill-rule="evenodd" d="M1370.1,260.1H1423v38h-52.9v-38Z" class="g5_14"/>
<path fill-rule="evenodd" d="M43.6,298.1H161.8V336H43.6V298.1Z" class="g5_14"/>
<path fill-rule="evenodd" d="M161.8,298.1h52.6V336H161.8V298.1Z" class="g5_14"/>
<path fill-rule="evenodd" d="M214.4,298.1h52.5V336H214.4V298.1Z" class="g5_14"/>
<path fill-rule="evenodd" d="M266.9,298.1h52.5V336H266.9V298.1Z" class="g5_14"/>
<path fill-rule="evenodd" d="M319.4,298.1H372V336H319.4V298.1Z" class="g5_14"/>
<path fill-rule="evenodd" d="M372,298.1h52.5V336H372V298.1Z" class="g5_14"/>
<path fill-rule="evenodd" d="M424.5,298.1H477V336H424.5V298.1Z" class="g5_14"/>
<path fill-rule="evenodd" d="M477,298.1h52.6V336H477V298.1Z" class="g5_14"/>
<path fill-rule="evenodd" d="M529.6,298.1h52.5V336H529.6V298.1Z" class="g5_14"/>
<path fill-rule="evenodd" d="M582.1,298.1h52.5V336H582.1V298.1Z" class="g5_14"/>
<path fill-rule="evenodd" d="M634.6,298.1h52.6V336H634.6V298.1Z" class="g5_14"/>
<path fill-rule="evenodd" d="M687.2,298.1h52.5V336H687.2V298.1Z" class="g5_14"/>
<path fill-rule="evenodd" d="M739.7,298.1h52.5V336H739.7V298.1Z" class="g5_14"/>
<path fill-rule="evenodd" d="M792.2,298.1h52.5V336H792.2V298.1Z" class="g5_14"/>
<path fill-rule="evenodd" d="M844.7,298.1h52.6V336H844.7V298.1Z" class="g5_14"/>
<path fill-rule="evenodd" d="M897.3,298.1h52.5V336H897.3V298.1Z" class="g5_14"/>
<path fill-rule="evenodd" d="M949.8,298.1h52.5V336H949.8V298.1Z" class="g5_14"/>
<path fill-rule="evenodd" d="M1002.3,298.1h52.6V336h-52.6V298.1Z" class="g5_14"/>
<path fill-rule="evenodd" d="M1054.9,298.1h52.5V336h-52.5V298.1Z" class="g5_14"/>
<path fill-rule="evenodd" d="M1107.4,298.1h52.5V336h-52.5V298.1Z" class="g5_14"/>
<path fill-rule="evenodd" d="M1159.9,298.1h52.6V336h-52.6V298.1Z" class="g5_14"/>
<path fill-rule="evenodd" d="M1212.5,298.1H1265V336h-52.5V298.1Z" class="g5_14"/>
<path fill-rule="evenodd" d="M1265,298.1h52.5V336H1265V298.1Z" class="g5_14"/>
<path fill-rule="evenodd" d="M1317.5,298.1h52.6V336h-52.6V298.1Z" class="g5_14"/>
<path fill-rule="evenodd" d="M1370.1,298.1H1423V336h-52.9V298.1Z" class="g5_14"/>
<path fill-rule="evenodd" d="M43.6,336H161.8v38H43.6V336Z" class="g5_14"/>
<path fill-rule="evenodd" d="M161.8,336h52.6v38H161.8V336Z" class="g5_14"/>
<path fill-rule="evenodd" d="M214.4,336h52.5v38H214.4V336Z" class="g5_14"/>
<path fill-rule="evenodd" d="M266.9,336h52.5v38H266.9V336Z" class="g5_14"/>
<path fill-rule="evenodd" d="M319.4,336H372v38H319.4V336Z" class="g5_14"/>
<path fill-rule="evenodd" d="M372,336h52.5v38H372V336Z" class="g5_14"/>
<path fill-rule="evenodd" d="M424.5,336H477v38H424.5V336Z" class="g5_14"/>
<path fill-rule="evenodd" d="M477,336h52.6v38H477V336Z" class="g5_14"/>
<path fill-rule="evenodd" d="M529.6,336h52.5v38H529.6V336Z" class="g5_14"/>
<path fill-rule="evenodd" d="M582.1,336h52.5v38H582.1V336Z" class="g5_14"/>
<path fill-rule="evenodd" d="M634.6,336h52.6v38H634.6V336Z" class="g5_14"/>
<path fill-rule="evenodd" d="M687.2,336h52.5v38H687.2V336Z" class="g5_14"/>
<path fill-rule="evenodd" d="M739.7,336h52.5v38H739.7V336Z" class="g5_14"/>
<path fill-rule="evenodd" d="M792.2,336h52.5v38H792.2V336Z" class="g5_14"/>
<path fill-rule="evenodd" d="M844.7,336h52.6v38H844.7V336Z" class="g5_14"/>
<path fill-rule="evenodd" d="M897.3,336h52.5v38H897.3V336Z" class="g5_14"/>
<path fill-rule="evenodd" d="M949.8,336h52.5v38H949.8V336Z" class="g5_14"/>
<path fill-rule="evenodd" d="M1002.3,336h52.6v38h-52.6V336Z" class="g5_14"/>
<path fill-rule="evenodd" d="M1054.9,336h52.5v38h-52.5V336Z" class="g5_14"/>
<path fill-rule="evenodd" d="M1107.4,336h52.5v38h-52.5V336Z" class="g5_14"/>
<path fill-rule="evenodd" d="M1159.9,336h52.6v38h-52.6V336Z" class="g5_14"/>
<path fill-rule="evenodd" d="M1212.5,336H1265v38h-52.5V336Z" class="g5_14"/>
<path fill-rule="evenodd" d="M1265,336h52.5v38H1265V336Z" class="g5_14"/>
<path fill-rule="evenodd" d="M1317.5,336h52.6v38h-52.6V336Z" class="g5_14"/>
<path fill-rule="evenodd" d="M1370.1,336H1423v38h-52.9V336Z" class="g5_14"/>
<path fill-rule="evenodd" d="M43.6,374H161.8v37.9H43.6V374Z" class="g5_14"/>
<path fill-rule="evenodd" d="M161.8,374h52.6v37.9H161.8V374Z" class="g5_14"/>
<path fill-rule="evenodd" d="M214.4,374h52.5v37.9H214.4V374Z" class="g5_14"/>
<path fill-rule="evenodd" d="M266.9,374h52.5v37.9H266.9V374Z" class="g5_14"/>
<path fill-rule="evenodd" d="M319.4,374H372v37.9H319.4V374Z" class="g5_14"/>
<path fill-rule="evenodd" d="M372,374h52.5v37.9H372V374Z" class="g5_14"/>
<path fill-rule="evenodd" d="M424.5,374H477v37.9H424.5V374Z" class="g5_14"/>
<path fill-rule="evenodd" d="M477,374h52.6v37.9H477V374Z" class="g5_14"/>
<path fill-rule="evenodd" d="M529.6,374h52.5v37.9H529.6V374Z" class="g5_14"/>
<path fill-rule="evenodd" d="M582.1,374h52.5v37.9H582.1V374Z" class="g5_14"/>
<path fill-rule="evenodd" d="M634.6,374h52.6v37.9H634.6V374Z" class="g5_14"/>
<path fill-rule="evenodd" d="M687.2,374h52.5v37.9H687.2V374Z" class="g5_14"/>
<path fill-rule="evenodd" d="M739.7,374h52.5v37.9H739.7V374Z" class="g5_14"/>
<path fill-rule="evenodd" d="M792.2,374h52.5v37.9H792.2V374Z" class="g5_14"/>
<path fill-rule="evenodd" d="M844.7,374h52.6v37.9H844.7V374Z" class="g5_14"/>
<path fill-rule="evenodd" d="M897.3,374h52.5v37.9H897.3V374Z" class="g5_14"/>
<path fill-rule="evenodd" d="M949.8,374h52.5v37.9H949.8V374Z" class="g5_14"/>
<path fill-rule="evenodd" d="M1002.3,374h52.6v37.9h-52.6V374Z" class="g5_14"/>
<path fill-rule="evenodd" d="M1054.9,374h52.5v37.9h-52.5V374Z" class="g5_14"/>
<path fill-rule="evenodd" d="M1107.4,374h52.5v37.9h-52.5V374Z" class="g5_14"/>
<path fill-rule="evenodd" d="M1159.9,374h52.6v37.9h-52.6V374Z" class="g5_14"/>
<path fill-rule="evenodd" d="M1212.5,374H1265v37.9h-52.5V374Z" class="g5_14"/>
<path fill-rule="evenodd" d="M1265,374h52.5v37.9H1265V374Z" class="g5_14"/>
<path fill-rule="evenodd" d="M1317.5,374h52.6v37.9h-52.6V374Z" class="g5_14"/>
<path fill-rule="evenodd" d="M1370.1,374H1423v37.9h-52.9V374Z" class="g5_14"/>
<path fill-rule="evenodd" d="M43.6,411.9H161.8v37.9H43.6V411.9Z" class="g5_14"/>
<path fill-rule="evenodd" d="M161.8,411.9h52.6v37.9H161.8V411.9Z" class="g5_14"/>
<path fill-rule="evenodd" d="M214.4,411.9h52.5v37.9H214.4V411.9Z" class="g5_14"/>
<path fill-rule="evenodd" d="M266.9,411.9h52.5v37.9H266.9V411.9Z" class="g5_14"/>
<path fill-rule="evenodd" d="M319.4,411.9H372v37.9H319.4V411.9Z" class="g5_14"/>
<path fill-rule="evenodd" d="M372,411.9h52.5v37.9H372V411.9Z" class="g5_14"/>
<path fill-rule="evenodd" d="M424.5,411.9H477v37.9H424.5V411.9Z" class="g5_14"/>
<path fill-rule="evenodd" d="M477,411.9h52.6v37.9H477V411.9Z" class="g5_14"/>
<path fill-rule="evenodd" d="M529.6,411.9h52.5v37.9H529.6V411.9Z" class="g5_14"/>
<path fill-rule="evenodd" d="M582.1,411.9h52.5v37.9H582.1V411.9Z" class="g5_14"/>
<path fill-rule="evenodd" d="M634.6,411.9h52.6v37.9H634.6V411.9Z" class="g5_14"/>
<path fill-rule="evenodd" d="M687.2,411.9h52.5v37.9H687.2V411.9Z" class="g5_14"/>
<path fill-rule="evenodd" d="M739.7,411.9h52.5v37.9H739.7V411.9Z" class="g5_14"/>
<path fill-rule="evenodd" d="M792.2,411.9h52.5v37.9H792.2V411.9Z" class="g5_14"/>
<path fill-rule="evenodd" d="M844.7,411.9h52.6v37.9H844.7V411.9Z" class="g5_14"/>
<path fill-rule="evenodd" d="M897.3,411.9h52.5v37.9H897.3V411.9Z" class="g5_14"/>
<path fill-rule="evenodd" d="M949.8,411.9h52.5v37.9H949.8V411.9Z" class="g5_14"/>
<path fill-rule="evenodd" d="M1002.3,411.9h52.6v37.9h-52.6V411.9Z" class="g5_14"/>
<path fill-rule="evenodd" d="M1054.9,411.9h52.5v37.9h-52.5V411.9Z" class="g5_14"/>
<path fill-rule="evenodd" d="M1107.4,411.9h52.5v37.9h-52.5V411.9Z" class="g5_14"/>
<path fill-rule="evenodd" d="M1159.9,411.9h52.6v37.9h-52.6V411.9Z" class="g5_14"/>
<path fill-rule="evenodd" d="M1212.5,411.9H1265v37.9h-52.5V411.9Z" class="g5_14"/>
<path fill-rule="evenodd" d="M1265,411.9h52.5v37.9H1265V411.9Z" class="g5_14"/>
<path fill-rule="evenodd" d="M1317.5,411.9h52.6v37.9h-52.6V411.9Z" class="g5_14"/>
<path fill-rule="evenodd" d="M1370.1,411.9H1423v37.9h-52.9V411.9Z" class="g5_14"/>
<path fill-rule="evenodd" d="M43.6,449.8H161.8v38H43.6v-38Z" class="g5_14"/>
<path fill-rule="evenodd" d="M161.8,449.8h52.6v38H161.8v-38Z" class="g5_14"/>
<path fill-rule="evenodd" d="M214.4,449.8h52.5v38H214.4v-38Z" class="g5_14"/>
<path fill-rule="evenodd" d="M266.9,449.8h52.5v38H266.9v-38Z" class="g5_14"/>
<path fill-rule="evenodd" d="M319.4,449.8H372v38H319.4v-38Z" class="g5_14"/>
<path fill-rule="evenodd" d="M372,449.8h52.5v38H372v-38Z" class="g5_14"/>
<path fill-rule="evenodd" d="M424.5,449.8H477v38H424.5v-38Z" class="g5_14"/>
<path fill-rule="evenodd" d="M477,449.8h52.6v38H477v-38Z" class="g5_14"/>
<path fill-rule="evenodd" d="M529.6,449.8h52.5v38H529.6v-38Z" class="g5_14"/>
<path fill-rule="evenodd" d="M582.1,449.8h52.5v38H582.1v-38Z" class="g5_14"/>
<path fill-rule="evenodd" d="M634.6,449.8h52.6v38H634.6v-38Z" class="g5_14"/>
<path fill-rule="evenodd" d="M687.2,449.8h52.5v38H687.2v-38Z" class="g5_14"/>
<path fill-rule="evenodd" d="M739.7,449.8h52.5v38H739.7v-38Z" class="g5_14"/>
<path fill-rule="evenodd" d="M792.2,449.8h52.5v38H792.2v-38Z" class="g5_14"/>
<path fill-rule="evenodd" d="M844.7,449.8h52.6v38H844.7v-38Z" class="g5_14"/>
<path fill-rule="evenodd" d="M897.3,449.8h52.5v38H897.3v-38Z" class="g5_14"/>
<path fill-rule="evenodd" d="M949.8,449.8h52.5v38H949.8v-38Z" class="g5_14"/>
<path fill-rule="evenodd" d="M1002.3,449.8h52.6v38h-52.6v-38Z" class="g5_14"/>
<path fill-rule="evenodd" d="M1054.9,449.8h52.5v38h-52.5v-38Z" class="g5_14"/>
<path fill-rule="evenodd" d="M1107.4,449.8h52.5v38h-52.5v-38Z" class="g5_14"/>
<path fill-rule="evenodd" d="M1159.9,449.8h52.6v38h-52.6v-38Z" class="g5_14"/>
<path fill-rule="evenodd" d="M1212.5,449.8H1265v38h-52.5v-38Z" class="g5_14"/>
<path fill-rule="evenodd" d="M1265,449.8h52.5v38H1265v-38Z" class="g5_14"/>
<path fill-rule="evenodd" d="M1317.5,449.8h52.6v38h-52.6v-38Z" class="g5_14"/>
<path fill-rule="evenodd" d="M1370.1,449.8H1423v38h-52.9v-38Z" class="g5_14"/>
<path fill-rule="evenodd" d="M43.6,487.8H161.8v37.9H43.6V487.8Z" class="g5_14"/>
<path fill-rule="evenodd" d="M161.8,487.8h52.6v37.9H161.8V487.8Z" class="g5_14"/>
<path fill-rule="evenodd" d="M214.4,487.8h52.5v37.9H214.4V487.8Z" class="g5_14"/>
<path fill-rule="evenodd" d="M266.9,487.8h52.5v37.9H266.9V487.8Z" class="g5_14"/>
<path fill-rule="evenodd" d="M319.4,487.8H372v37.9H319.4V487.8Z" class="g5_14"/>
<path fill-rule="evenodd" d="M372,487.8h52.5v37.9H372V487.8Z" class="g5_14"/>
<path fill-rule="evenodd" d="M424.5,487.8H477v37.9H424.5V487.8Z" class="g5_14"/>
<path fill-rule="evenodd" d="M477,487.8h52.6v37.9H477V487.8Z" class="g5_14"/>
<path fill-rule="evenodd" d="M529.6,487.8h52.5v37.9H529.6V487.8Z" class="g5_14"/>
<path fill-rule="evenodd" d="M582.1,487.8h52.5v37.9H582.1V487.8Z" class="g5_14"/>
<path fill-rule="evenodd" d="M634.6,487.8h52.6v37.9H634.6V487.8Z" class="g5_14"/>
<path fill-rule="evenodd" d="M687.2,487.8h52.5v37.9H687.2V487.8Z" class="g5_14"/>
<path fill-rule="evenodd" d="M739.7,487.8h52.5v37.9H739.7V487.8Z" class="g5_14"/>
<path fill-rule="evenodd" d="M792.2,487.8h52.5v37.9H792.2V487.8Z" class="g5_14"/>
<path fill-rule="evenodd" d="M844.7,487.8h52.6v37.9H844.7V487.8Z" class="g5_14"/>
<path fill-rule="evenodd" d="M897.3,487.8h52.5v37.9H897.3V487.8Z" class="g5_14"/>
<path fill-rule="evenodd" d="M949.8,487.8h52.5v37.9H949.8V487.8Z" class="g5_14"/>
<path fill-rule="evenodd" d="M1002.3,487.8h52.6v37.9h-52.6V487.8Z" class="g5_14"/>
<path fill-rule="evenodd" d="M1054.9,487.8h52.5v37.9h-52.5V487.8Z" class="g5_14"/>
<path fill-rule="evenodd" d="M1107.4,487.8h52.5v37.9h-52.5V487.8Z" class="g5_14"/>
<path fill-rule="evenodd" d="M1159.9,487.8h52.6v37.9h-52.6V487.8Z" class="g5_14"/>
<path fill-rule="evenodd" d="M1212.5,487.8H1265v37.9h-52.5V487.8Z" class="g5_14"/>
<path fill-rule="evenodd" d="M1265,487.8h52.5v37.9H1265V487.8Z" class="g5_14"/>
<path fill-rule="evenodd" d="M1317.5,487.8h52.6v37.9h-52.6V487.8Z" class="g5_14"/>
<path fill-rule="evenodd" d="M1370.1,487.8H1423v37.9h-52.9V487.8Z" class="g5_14"/>
<path fill-rule="evenodd" d="M43.6,525.7H161.8v37.9H43.6V525.7Z" class="g5_14"/>
<path fill-rule="evenodd" d="M161.8,525.7h52.6v37.9H161.8V525.7Z" class="g5_14"/>
<path fill-rule="evenodd" d="M214.4,525.7h52.5v37.9H214.4V525.7Z" class="g5_14"/>
<path fill-rule="evenodd" d="M266.9,525.7h52.5v37.9H266.9V525.7Z" class="g5_14"/>
<path fill-rule="evenodd" d="M319.4,525.7H372v37.9H319.4V525.7Z" class="g5_14"/>
<path fill-rule="evenodd" d="M372,525.7h52.5v37.9H372V525.7Z" class="g5_14"/>
<path fill-rule="evenodd" d="M424.5,525.7H477v37.9H424.5V525.7Z" class="g5_14"/>
<path fill-rule="evenodd" d="M477,525.7h52.6v37.9H477V525.7Z" class="g5_14"/>
<path fill-rule="evenodd" d="M529.6,525.7h52.5v37.9H529.6V525.7Z" class="g5_14"/>
<path fill-rule="evenodd" d="M582.1,525.7h52.5v37.9H582.1V525.7Z" class="g5_14"/>
<path fill-rule="evenodd" d="M634.6,525.7h52.6v37.9H634.6V525.7Z" class="g5_14"/>
<path fill-rule="evenodd" d="M687.2,525.7h52.5v37.9H687.2V525.7Z" class="g5_14"/>
<path fill-rule="evenodd" d="M739.7,525.7h52.5v37.9H739.7V525.7Z" class="g5_14"/>
<path fill-rule="evenodd" d="M792.2,525.7h52.5v37.9H792.2V525.7Z" class="g5_14"/>
<path fill-rule="evenodd" d="M844.7,525.7h52.6v37.9H844.7V525.7Z" class="g5_14"/>
<path fill-rule="evenodd" d="M897.3,525.7h52.5v37.9H897.3V525.7Z" class="g5_14"/>
<path fill-rule="evenodd" d="M949.8,525.7h52.5v37.9H949.8V525.7Z" class="g5_14"/>
<path fill-rule="evenodd" d="M1002.3,525.7h52.6v37.9h-52.6V525.7Z" class="g5_14"/>
<path fill-rule="evenodd" d="M1054.9,525.7h52.5v37.9h-52.5V525.7Z" class="g5_14"/>
<path fill-rule="evenodd" d="M1107.4,525.7h52.5v37.9h-52.5V525.7Z" class="g5_14"/>
<path fill-rule="evenodd" d="M1159.9,525.7h52.6v37.9h-52.6V525.7Z" class="g5_14"/>
<path fill-rule="evenodd" d="M1212.5,525.7H1265v37.9h-52.5V525.7Z" class="g5_14"/>
<path fill-rule="evenodd" d="M1265,525.7h52.5v37.9H1265V525.7Z" class="g5_14"/>
<path fill-rule="evenodd" d="M1317.5,525.7h52.6v37.9h-52.6V525.7Z" class="g5_14"/>
<path fill-rule="evenodd" d="M1370.1,525.7H1423v37.9h-52.9V525.7Z" class="g5_14"/>
<path fill-rule="evenodd" d="M43.6,563.6H161.8v38H43.6v-38Z" class="g5_14"/>
<path fill-rule="evenodd" d="M161.8,563.6h52.6v38H161.8v-38Z" class="g5_14"/>
<path fill-rule="evenodd" d="M214.4,563.6h52.5v38H214.4v-38Z" class="g5_14"/>
<path fill-rule="evenodd" d="M266.9,563.6h52.5v38H266.9v-38Z" class="g5_14"/>
<path fill-rule="evenodd" d="M319.4,563.6H372v38H319.4v-38Z" class="g5_14"/>
<path fill-rule="evenodd" d="M372,563.6h52.5v38H372v-38Z" class="g5_14"/>
<path fill-rule="evenodd" d="M424.5,563.6H477v38H424.5v-38Z" class="g5_14"/>
<path fill-rule="evenodd" d="M477,563.6h52.6v38H477v-38Z" class="g5_14"/>
<path fill-rule="evenodd" d="M529.6,563.6h52.5v38H529.6v-38Z" class="g5_14"/>
<path fill-rule="evenodd" d="M582.1,563.6h52.5v38H582.1v-38Z" class="g5_14"/>
<path fill-rule="evenodd" d="M634.6,563.6h52.6v38H634.6v-38Z" class="g5_14"/>
<path fill-rule="evenodd" d="M687.2,563.6h52.5v38H687.2v-38Z" class="g5_14"/>
<path fill-rule="evenodd" d="M739.7,563.6h52.5v38H739.7v-38Z" class="g5_14"/>
<path fill-rule="evenodd" d="M792.2,563.6h52.5v38H792.2v-38Z" class="g5_14"/>
<path fill-rule="evenodd" d="M844.7,563.6h52.6v38H844.7v-38Z" class="g5_14"/>
<path fill-rule="evenodd" d="M897.3,563.6h52.5v38H897.3v-38Z" class="g5_14"/>
<path fill-rule="evenodd" d="M949.8,563.6h52.5v38H949.8v-38Z" class="g5_14"/>
<path fill-rule="evenodd" d="M1002.3,563.6h52.6v38h-52.6v-38Z" class="g5_14"/>
<path fill-rule="evenodd" d="M1054.9,563.6h52.5v38h-52.5v-38Z" class="g5_14"/>
<path fill-rule="evenodd" d="M1107.4,563.6h52.5v38h-52.5v-38Z" class="g5_14"/>
<path fill-rule="evenodd" d="M1159.9,563.6h52.6v38h-52.6v-38Z" class="g5_14"/>
<path fill-rule="evenodd" d="M1212.5,563.6H1265v38h-52.5v-38Z" class="g5_14"/>
<path fill-rule="evenodd" d="M1265,563.6h52.5v38H1265v-38Z" class="g5_14"/>
<path fill-rule="evenodd" d="M1317.5,563.6h52.6v38h-52.6v-38Z" class="g5_14"/>
<path fill-rule="evenodd" d="M1370.1,563.6H1423v38h-52.9v-38Z" class="g5_14"/>
<path fill-rule="evenodd" d="M43.6,601.6H161.8v37.9H43.6V601.6Z" class="g5_14"/>
<path fill-rule="evenodd" d="M161.8,601.6h52.6v37.9H161.8V601.6Z" class="g5_14"/>
<path fill-rule="evenodd" d="M214.4,601.6h52.5v37.9H214.4V601.6Z" class="g5_14"/>
<path fill-rule="evenodd" d="M266.9,601.6h52.5v37.9H266.9V601.6Z" class="g5_14"/>
<path fill-rule="evenodd" d="M319.4,601.6H372v37.9H319.4V601.6Z" class="g5_14"/>
<path fill-rule="evenodd" d="M372,601.6h52.5v37.9H372V601.6Z" class="g5_14"/>
<path fill-rule="evenodd" d="M424.5,601.6H477v37.9H424.5V601.6Z" class="g5_14"/>
<path fill-rule="evenodd" d="M477,601.6h52.6v37.9H477V601.6Z" class="g5_14"/>
<path fill-rule="evenodd" d="M529.6,601.6h52.5v37.9H529.6V601.6Z" class="g5_14"/>
<path fill-rule="evenodd" d="M582.1,601.6h52.5v37.9H582.1V601.6Z" class="g5_14"/>
<path fill-rule="evenodd" d="M634.6,601.6h52.6v37.9H634.6V601.6Z" class="g5_14"/>
<path fill-rule="evenodd" d="M687.2,601.6h52.5v37.9H687.2V601.6Z" class="g5_14"/>
<path fill-rule="evenodd" d="M739.7,601.6h52.5v37.9H739.7V601.6Z" class="g5_14"/>
<path fill-rule="evenodd" d="M792.2,601.6h52.5v37.9H792.2V601.6Z" class="g5_14"/>
<path fill-rule="evenodd" d="M844.7,601.6h52.6v37.9H844.7V601.6Z" class="g5_14"/>
<path fill-rule="evenodd" d="M897.3,601.6h52.5v37.9H897.3V601.6Z" class="g5_14"/>
<path fill-rule="evenodd" d="M949.8,601.6h52.5v37.9H949.8V601.6Z" class="g5_14"/>
<path fill-rule="evenodd" d="M1002.3,601.6h52.6v37.9h-52.6V601.6Z" class="g5_14"/>
<path fill-rule="evenodd" d="M1054.9,601.6h52.5v37.9h-52.5V601.6Z" class="g5_14"/>
<path fill-rule="evenodd" d="M1107.4,601.6h52.5v37.9h-52.5V601.6Z" class="g5_14"/>
<path fill-rule="evenodd" d="M1159.9,601.6h52.6v37.9h-52.6V601.6Z" class="g5_14"/>
<path fill-rule="evenodd" d="M1212.5,601.6H1265v37.9h-52.5V601.6Z" class="g5_14"/>
<path fill-rule="evenodd" d="M1265,601.6h52.5v37.9H1265V601.6Z" class="g5_14"/>
<path fill-rule="evenodd" d="M1317.5,601.6h52.6v37.9h-52.6V601.6Z" class="g5_14"/>
<path fill-rule="evenodd" d="M1370.1,601.6H1423v37.9h-52.9V601.6Z" class="g5_14"/>
<path fill-rule="evenodd" d="M43.6,639.5H161.8v38H43.6v-38Z" class="g5_14"/>
<path fill-rule="evenodd" d="M161.8,639.5h52.6v38H161.8v-38Z" class="g5_14"/>
<path fill-rule="evenodd" d="M214.4,639.5h52.5v38H214.4v-38Z" class="g5_14"/>
<path fill-rule="evenodd" d="M266.9,639.5h52.5v38H266.9v-38Z" class="g5_14"/>
<path fill-rule="evenodd" d="M319.4,639.5H372v38H319.4v-38Z" class="g5_14"/>
<path fill-rule="evenodd" d="M372,639.5h52.5v38H372v-38Z" class="g5_14"/>
<path fill-rule="evenodd" d="M424.5,639.5H477v38H424.5v-38Z" class="g5_14"/>
<path fill-rule="evenodd" d="M477,639.5h52.6v38H477v-38Z" class="g5_14"/>
<path fill-rule="evenodd" d="M529.6,639.5h52.5v38H529.6v-38Z" class="g5_14"/>
<path fill-rule="evenodd" d="M582.1,639.5h52.5v38H582.1v-38Z" class="g5_14"/>
<path fill-rule="evenodd" d="M634.6,639.5h52.6v38H634.6v-38Z" class="g5_14"/>
<path fill-rule="evenodd" d="M687.2,639.5h52.5v38H687.2v-38Z" class="g5_14"/>
<path fill-rule="evenodd" d="M739.7,639.5h52.5v38H739.7v-38Z" class="g5_14"/>
<path fill-rule="evenodd" d="M792.2,639.5h52.5v38H792.2v-38Z" class="g5_14"/>
<path fill-rule="evenodd" d="M844.7,639.5h52.6v38H844.7v-38Z" class="g5_14"/>
<path fill-rule="evenodd" d="M897.3,639.5h52.5v38H897.3v-38Z" class="g5_14"/>
<path fill-rule="evenodd" d="M949.8,639.5h52.5v38H949.8v-38Z" class="g5_14"/>
<path fill-rule="evenodd" d="M1002.3,639.5h52.6v38h-52.6v-38Z" class="g5_14"/>
<path fill-rule="evenodd" d="M1054.9,639.5h52.5v38h-52.5v-38Z" class="g5_14"/>
<path fill-rule="evenodd" d="M1107.4,639.5h52.5v38h-52.5v-38Z" class="g5_14"/>
<path fill-rule="evenodd" d="M1159.9,639.5h52.6v38h-52.6v-38Z" class="g5_14"/>
<path fill-rule="evenodd" d="M1212.5,639.5H1265v38h-52.5v-38Z" class="g5_14"/>
<path fill-rule="evenodd" d="M1265,639.5h52.5v38H1265v-38Z" class="g5_14"/>
<path fill-rule="evenodd" d="M1317.5,639.5h52.6v38h-52.6v-38Z" class="g5_14"/>
<path fill-rule="evenodd" d="M1370.1,639.5H1423v38h-52.9v-38Z" class="g5_14"/>
<path fill-rule="evenodd" d="M43.6,677.5H161.8v37.9H43.6V677.5Z" class="g5_14"/>
<path fill-rule="evenodd" d="M161.8,677.5h52.6v37.9H161.8V677.5Z" class="g5_14"/>
<path fill-rule="evenodd" d="M214.4,677.5h52.5v37.9H214.4V677.5Z" class="g5_14"/>
<path fill-rule="evenodd" d="M266.9,677.5h52.5v37.9H266.9V677.5Z" class="g5_14"/>
<path fill-rule="evenodd" d="M319.4,677.5H372v37.9H319.4V677.5Z" class="g5_14"/>
<path fill-rule="evenodd" d="M372,677.5h52.5v37.9H372V677.5Z" class="g5_14"/>
<path fill-rule="evenodd" d="M424.5,677.5H477v37.9H424.5V677.5Z" class="g5_14"/>
<path fill-rule="evenodd" d="M477,677.5h52.6v37.9H477V677.5Z" class="g5_14"/>
<path fill-rule="evenodd" d="M529.6,677.5h52.5v37.9H529.6V677.5Z" class="g5_14"/>
<path fill-rule="evenodd" d="M582.1,677.5h52.5v37.9H582.1V677.5Z" class="g5_14"/>
<path fill-rule="evenodd" d="M634.6,677.5h52.6v37.9H634.6V677.5Z" class="g5_14"/>
<path fill-rule="evenodd" d="M687.2,677.5h52.5v37.9H687.2V677.5Z" class="g5_14"/>
<path fill-rule="evenodd" d="M739.7,677.5h52.5v37.9H739.7V677.5Z" class="g5_14"/>
<path fill-rule="evenodd" d="M792.2,677.5h52.5v37.9H792.2V677.5Z" class="g5_14"/>
<path fill-rule="evenodd" d="M844.7,677.5h52.6v37.9H844.7V677.5Z" class="g5_14"/>
<path fill-rule="evenodd" d="M897.3,677.5h52.5v37.9H897.3V677.5Z" class="g5_14"/>
<path fill-rule="evenodd" d="M949.8,677.5h52.5v37.9H949.8V677.5Z" class="g5_14"/>
<path fill-rule="evenodd" d="M1002.3,677.5h52.6v37.9h-52.6V677.5Z" class="g5_14"/>
<path fill-rule="evenodd" d="M1054.9,677.5h52.5v37.9h-52.5V677.5Z" class="g5_14"/>
<path fill-rule="evenodd" d="M1107.4,677.5h52.5v37.9h-52.5V677.5Z" class="g5_14"/>
<path fill-rule="evenodd" d="M1159.9,677.5h52.6v37.9h-52.6V677.5Z" class="g5_14"/>
<path fill-rule="evenodd" d="M1212.5,677.5H1265v37.9h-52.5V677.5Z" class="g5_14"/>
<path fill-rule="evenodd" d="M1265,677.5h52.5v37.9H1265V677.5Z" class="g5_14"/>
<path fill-rule="evenodd" d="M1317.5,677.5h52.6v37.9h-52.6V677.5Z" class="g5_14"/>
<path fill-rule="evenodd" d="M1370.1,677.5H1423v37.9h-52.9V677.5Z" class="g5_14"/>
<path fill-rule="evenodd" d="M43.6,715.4H161.8v38.2H43.6V715.4Z" class="g5_14"/>
<path fill-rule="evenodd" d="M161.8,715.4h52.6v38.2H161.8V715.4Z" class="g5_14"/>
<path fill-rule="evenodd" d="M214.4,715.4h52.5v38.2H214.4V715.4Z" class="g5_14"/>
<path fill-rule="evenodd" d="M266.9,715.4h52.5v38.2H266.9V715.4Z" class="g5_14"/>
<path fill-rule="evenodd" d="M319.4,715.4H372v38.2H319.4V715.4Z" class="g5_14"/>
<path fill-rule="evenodd" d="M372,715.4h52.5v38.2H372V715.4Z" class="g5_14"/>
<path fill-rule="evenodd" d="M424.5,715.4H477v38.2H424.5V715.4Z" class="g5_14"/>
<path fill-rule="evenodd" d="M477,715.4h52.6v38.2H477V715.4Z" class="g5_14"/>
<path fill-rule="evenodd" d="M529.6,715.4h52.5v38.2H529.6V715.4Z" class="g5_14"/>
<path fill-rule="evenodd" d="M582.1,715.4h52.5v38.2H582.1V715.4Z" class="g5_14"/>
<path fill-rule="evenodd" d="M634.6,715.4h52.6v38.2H634.6V715.4Z" class="g5_14"/>
<path fill-rule="evenodd" d="M687.2,715.4h52.5v38.2H687.2V715.4Z" class="g5_14"/>
<path fill-rule="evenodd" d="M739.7,715.4h52.5v38.2H739.7V715.4Z" class="g5_14"/>
<path fill-rule="evenodd" d="M792.2,715.4h52.5v38.2H792.2V715.4Z" class="g5_14"/>
<path fill-rule="evenodd" d="M844.7,715.4h52.6v38.2H844.7V715.4Z" class="g5_14"/>
<path fill-rule="evenodd" d="M897.3,715.4h52.5v38.2H897.3V715.4Z" class="g5_14"/>
<path fill-rule="evenodd" d="M949.8,715.4h52.5v38.2H949.8V715.4Z" class="g5_14"/>
<path fill-rule="evenodd" d="M1002.3,715.4h52.6v38.2h-52.6V715.4Z" class="g5_14"/>
<path fill-rule="evenodd" d="M1054.9,715.4h52.5v38.2h-52.5V715.4Z" class="g5_14"/>
<path fill-rule="evenodd" d="M1107.4,715.4h52.5v38.2h-52.5V715.4Z" class="g5_14"/>
<path fill-rule="evenodd" d="M1159.9,715.4h52.6v38.2h-52.6V715.4Z" class="g5_14"/>
<path fill-rule="evenodd" d="M1212.5,715.4H1265v38.2h-52.5V715.4Z" class="g5_14"/>
<path fill-rule="evenodd" d="M1265,715.4h52.5v38.2H1265V715.4Z" class="g5_14"/>
<path fill-rule="evenodd" d="M1317.5,715.4h52.6v38.2h-52.6V715.4Z" class="g5_14"/>
<path fill-rule="evenodd" d="M1370.1,715.4H1423v38.2h-52.9V715.4Z" class="g5_14"/>
<path d="M43,260.1H1423.7M43,298.1H1423.7M43,336H1423.7M43,374H1423.7M43,411.9H1423.7M43,449.8H1423.7M43,487.8H1423.7M43,525.7H1423.7M43,563.6H1423.7M43,601.6H1423.7M43,639.5H1423.7M43,677.5H1423.7M43,715.4H162.5M43,753.6H162.5m-1.3,-38.2H215m-53.8,38.2H215m-1.3,-38.2h53.9m-53.9,38.2h53.9m-1.3,-38.2h53.8m-53.8,38.2h53.8m-1.3,-38.2h53.8m-53.8,38.2h53.8m-1.3,-38.2h53.8m-53.8,38.2h53.8m-1.3,-38.2h53.9m-53.9,38.2h53.9m-1.3,-38.2h53.8m-53.8,38.2h53.8m-1.3,-38.2h53.8m-53.8,38.2h53.8m-1.3,-38.2h53.9m-53.9,38.2h53.9M634,715.4h53.8M634,753.6h53.8m-1.3,-38.2h53.8m-53.8,38.2h53.8M739,715.4h53.9M739,753.6h53.9m-1.3,-38.2h53.8m-53.8,38.2h53.8m-1.3,-38.2h53.8m-53.8,38.2h53.8m-1.3,-38.2h53.9m-53.9,38.2h53.9m-1.3,-38.2H1003m-53.8,38.2H1003m-1.3,-38.2h53.8m-53.8,38.2h53.8m-1.3,-38.2h53.9m-53.9,38.2h53.9m-1.3,-38.2h53.8m-53.8,38.2h53.8m-1.3,-38.2h53.8m-53.8,38.2h53.8m-1.3,-38.2h53.8m-53.8,38.2h53.8m-1.2,-38.2h53.8m-53.8,38.2h53.8m-1.3,-38.2h53.8m-53.8,38.2h53.8m-1.3,-38.2h54.3m-54.3,38.2h54.3M43.6,259.5V754.3M161.8,259.5V754.3M214.4,259.5V754.3M266.9,259.5V754.3M319.4,259.5V754.3M372,259.5V754.3M424.5,259.5V754.3M477,259.5V754.3M529.6,259.5V754.3M582.1,259.5V754.3M634.6,259.5V754.3M687.2,259.5V754.3M739.7,259.5V754.3M792.2,259.5V754.3M844.7,259.5V754.3M897.3,259.5V754.3M949.8,259.5V754.3m52.5,-494.8V754.3m52.6,-494.8V754.3m52.5,-494.8V754.3m52.5,-494.8V754.3m52.6,-494.8V754.3M1265,259.5V754.3m52.5,-494.8V754.3m52.6,-494.8v39.2M1423,259.5v39.2m-52.9,-1.3v39.3M1423,297.4v39.3m-52.9,-1.3v39.2M1423,335.4v39.2m-52.9,-1.3v39.2M1423,373.3v39.2m-52.9,-1.3v39.3M1423,411.2v39.3m-52.9,-1.3v39.2M1423,449.2v39.2m-52.9,-1.3v39.3M1423,487.1v39.3m-52.9,-1.3v39.2M1423,525.1v39.2M1370.1,563v39.2M1423,563v39.2m-52.9,-1.3v39.3M1423,600.9v39.3m-52.9,-1.3v39.2M1423,638.9v39.2m-52.9,-1.3V716M1423,676.8V716m-52.9,-1.3v39.6M1423,714.7v39.6" class="g6_14"/>
</svg>