<?xml version="1.0" encoding="UTF-8" standalone="no"?>
<!DOCTYPE svg PUBLIC "-//W3C//DTD SVG 1.1//EN"
"http://www.w3.org/Graphics/SVG/1.1/DTD/svg11.dtd">
<svg viewBox="0 0 1466 825" version="1.1" xmlns="http://www.w3.org/2000/svg" xmlns:xlink="http://www.w3.org/1999/xlink">
<defs>
<clipPath id="c0_15"><path d="M0,825V0H1466.6V825Z"/></clipPath>
<clipPath id="c1_15"><path d="M60,246.5V0H1414.3V246.5Z"/></clipPath>
<style type="text/css"><![CDATA[
.g0_15{
fill: #FFFFFF;
}
.g1_15{
fill: #D9D9D9;
fill-opacity: 0.3;
}
.g2_15{
fill: none;
stroke: #D9D9D9;
stroke-width: 1.125;
stroke-linecap: butt;
stroke-linejoin: miter;
stroke-miterlimit: 7;
stroke-opacity: 0.3;
}
.g3_15{
fill: #47ACC9;
}
.g4_15{
fill: none;
stroke: #E5E9F0;
stroke-width: 1.125;
stroke-linecap: butt;
stroke-linejoin: miter;
stroke-miterlimit: 7;
}
.g5_15{
fill: #E8F1F5;
}
.g6_15{
fill: none;
stroke: #FFFFFF;
stroke-width: 1.298;
stroke-linecap: butt;
stroke-linejoin: round;
}
.g7_15{
fill: none;
stroke: #D9D9D9;
stroke-width: 1.125;
stroke-linecap: butt;
stroke-linejoin: round;
}
.g8_15{
fill: none;
stroke: #47ACC9;
stroke-width: 3.42;
stroke-linecap: butt;
stroke-linejoin: round;
}
]]></style>
</defs>
<g clip-path="url(#c0_15)">
<path fill-rule="evenodd" d="M0,0H1466.6V825H0V0Z" class="g0_15"/>
<path fill-rule="evenodd" d="M0,0H1466.7V825H0V0Z" class="g0_15"/>
</g>
<path fill-rule="evenodd" d="M742.1,246H70.4V3.2H1413.8V246H742.1Z" class="g1_15"/>
<path d="M742.1,246H70.4V3.2H1413.8V246H742.1Z" class="g2_15"/>
<g clip-path="url(#c1_15)">
<path fill-rule="evenodd" d="M738.9,242.8H67.2V0H1410.6V242.8H738.9Z" class="g3_15"/>
<path d="M738.9,242.8H67.2V0H1410.6V242.8H738.9Z" class="g4_15"/>
<path fill-rule="evenodd" d="M739.2,241.9H68.2V0H1410.1V241.9H739.2Z" class="g3_15"/>
</g>
<path fill-rule="evenodd" d="M67.7,179.3H60V94.7H75.4v84.6H67.7Z" class="g3_15"/>
<path fill-rule="evenodd" d="M40.1,257.4H303.2v44.1H40.1V257.4Z" class="g5_15"/>
<path fill-rule="evenodd" d="M303.2,257.4h30.6v44.1H303.2V257.4Z" class="g5_15"/>
<path fill-rule="evenodd" d="M333.8,257.4H482.4v44.1H333.8V257.4Z" class="g5_15"/>
<path fill-rule="evenodd" d="M482.4,257.4H613.9v44.1H482.4V257.4Z" class="g5_15"/>
<path fill-rule="evenodd" d="M40.1,301.5H303.2v44.1H40.1V301.5Z" class="g5_15"/>
<path fill-rule="evenodd" d="M303.2,301.5h30.6v44.1H303.2V301.5Z" class="g5_15"/>
<path fill-rule="evenodd" d="M333.8,301.5H482.4v44.1H333.8V301.5Z" class="g5_15"/>
<path fill-rule="evenodd" d="M482.4,301.5H613.9v44.1H482.4V301.5Z" class="g5_15"/>
<path fill-rule="evenodd" d="M40.1,345.6H303.2v44.2H40.1V345.6Z" class="g5_15"/>
<path fill-rule="evenodd" d="M303.2,345.6h30.6v44.2H303.2V345.6Z" class="g5_15"/>
<path fill-rule="evenodd" d="M333.8,345.6H482.4v44.2H333.8V345.6Z" class="g5_15"/>
<path fill-rule="evenodd" d="M482.4,345.6H613.9v44.2H482.4V345.6Z" class="g5_15"/>
<path fill-rule="evenodd" d="M40.1,389.8H303.2v44.1H40.1V389.8Z" class="g5_15"/>
<path fill-rule="evenodd" d="M303.2,389.8h30.6v44.1H303.2V389.8Z" class="g5_15"/>
<path fill-rule="evenodd" d="M333.8,389.8H482.4v44.1H333.8V389.8Z" class="g5_15"/>
<path fill-rule="evenodd" d="M482.4,389.8H613.9v44.1H482.4V389.8Z" class="g5_15"/>
<path fill-rule="evenodd" d="M40.1,433.9H303.2v22.6H40.1V433.9Z" class="g5_15"/>
<path fill-rule="evenodd" d="M303.2,433.9h30.6v22.6H303.2V433.9Z" class="g5_15"/>
<path fill-rule="evenodd" d="M333.8,433.9H482.4v22.6H333.8V433.9Z" class="g5_15"/>
<path fill-rule="evenodd" d="M482.4,433.9H613.9v22.6H482.4V433.9Z" class="g5_15"/>
<path fill-rule="evenodd" d="M40.1,456.5H303.2v22.7H40.1V456.5Z" class="g5_15"/>
<path fill-rule="evenodd" d="M303.2,456.5h30.6v22.7H303.2V456.5Z" class="g5_15"/>
<path fill-rule="evenodd" d="M333.8,456.5H482.4v22.7H333.8V456.5Z" class="g5_15"/>
<path fill-rule="evenodd" d="M482.4,456.5H613.9v22.7H482.4V456.5Z" class="g5_15"/>
<path fill-rule="evenodd" d="M40.1,479.2H303.2v44.1H40.1V479.2Z" class="g5_15"/>
<path fill-rule="evenodd" d="M303.2,479.2h30.6v44.1H303.2V479.2Z" class="g5_15"/>
<path fill-rule="evenodd" d="M333.8,479.2H482.4v44.1H333.8V479.2Z" class="g5_15"/>
<path fill-rule="evenodd" d="M482.4,479.2H613.9v44.1H482.4V479.2Z" class="g5_15"/>
<path fill-rule="evenodd" d="M40.1,523.3H303.2v44.2H40.1V523.3Z" class="g5_15"/>
<path fill-rule="evenodd" d="M303.2,523.3h30.6v44.2H303.2V523.3Z" class="g5_15"/>
<path fill-rule="evenodd" d="M333.8,523.3H482.4v44.2H333.8V523.3Z" class="g5_15"/>
<path fill-rule="evenodd" d="M482.4,523.3H613.9v44.2H482.4V523.3Z" class="g5_15"/>
<path fill-rule="evenodd" d="M40.1,567.5H303.2v44.1H40.1V567.5Z" class="g5_15"/>
<path fill-rule="evenodd" d="M303.2,567.5h30.6v44.1H303.2V567.5Z" class="g5_15"/>
<path fill-rule="evenodd" d="M333.8,567.5H482.4v44.1H333.8V567.5Z" class="g5_15"/>
<path fill-rule="evenodd" d="M482.4,567.5H613.9v44.1H482.4V567.5Z" class="g5_15"/>
<path fill-rule="evenodd" d="M40.1,611.6H303.2v22.6H40.1V611.6Z" class="g5_15"/>
<path fill-rule="evenodd" d="M303.2,611.6h30.6v22.6H303.2V611.6Z" class="g5_15"/>
<path fill-rule="evenodd" d="M333.8,611.6H482.4v22.6H333.8V611.6Z" class="g5_15"/>
<path fill-rule="evenodd" d="M482.4,611.6H613.9v22.6H482.4V611.6Z" class="g5_15"/>
<path fill-rule="evenodd" d="M40.1,634.2H303.2v22.7H40.1V634.2Z" class="g5_15"/>
<path fill-rule="evenodd" d="M303.2,634.2h30.6v22.7H303.2V634.2Z" class="g5_15"/>
<path fill-rule="evenodd" d="M333.8,634.2H482.4v22.7H333.8V634.2Z" class="g5_15"/>
<path fill-rule="evenodd" d="M482.4,634.2H613.9v22.7H482.4V634.2Z" class="g5_15"/>
<path fill-rule="evenodd" d="M40.1,656.9H303.2v22.6H40.1V656.9Z" class="g5_15"/>
<path fill-rule="evenodd" d="M303.2,656.9h30.6v22.6H303.2V656.9Z" class="g5_15"/>
<path fill-rule="evenodd" d="M333.8,656.9H482.4v22.6H333.8V656.9Z" class="g5_15"/>
<path fill-rule="evenodd" d="M482.4,656.9H613.9v22.6H482.4V656.9Z" class="g5_15"/>
<path fill-rule="evenodd" d="M40.1,679.5H303.2v44.2H40.1V679.5Z" class="g5_15"/>
<path fill-rule="evenodd" d="M303.2,679.5h30.6v44.2H303.2V679.5Z" class="g5_15"/>
<path fill-rule="evenodd" d="M333.8,679.5H482.4v44.2H333.8V679.5Z" class="g5_15"/>
<path fill-rule="evenodd" d="M482.4,679.5H613.9v44.2H482.4V679.5Z" class="g5_15"/>
<path d="M39.5,257.4h575m-575,44.1h575m-575,44.1h575m-575,44.2h575m-575,44.1h575m-575,22.6h575m-575,22.7h575m-575,44.1h575m-575,44.2h575m-575,44.1h575m-575,22.6h575m-575,22.7h575m-575,22.6H303.9M39.5,723.7H303.9m-1.3,-44.2h31.9m-31.9,44.2h31.9m-1.3,-44.2H483M333.2,723.7H483m-1.3,-44.2H614.5M481.7,723.7H614.5M40.1,256.7V724.3M303.2,256.7V724.3M333.8,256.7V724.3M482.4,256.7v45.5M613.9,256.7v45.5M482.4,300.9v45.4M613.9,300.9v45.4M482.4,345v45.4M613.9,345v45.4M482.4,389.1v45.4M613.9,389.1v45.4M482.4,433.2v24m131.5,-24v24M482.4,455.9v23.9M613.9,455.9v23.9M482.4,478.5V524M613.9,478.5V524M482.4,522.7v45.4M613.9,522.7v45.4M482.4,566.8v45.4M613.9,566.8v45.4M482.4,610.9v24m131.5,-24v24M482.4,633.6v23.9M613.9,633.6v23.9M482.4,656.2v24m131.5,-24v24M482.4,678.9v45.4M613.9,678.9v45.4" class="g6_15"/>
<path d="M1260.3,608.9H749.6m510.7,-34.6H749.6m510.7,-34.7H749.6M1260.3,505H749.6m510.7,-34.6H749.6m510.7,-34.6H749.6m510.7,-34.6H749.6m0,207.7h510.7" class="g7_15"/>
<path d="M749.6,594.1l22.1,-3l22.2,-3.5l22.3,-4.3l22.2,-5.1l22.2,-6.1l22.2,-38.5L905,529.9l22.2,-4l22.2,-4.1l22.2,-4.4l22.2,-4.6L1016,502.2l22.2,-5.2l22.2,-5.4l22.2,-5.7l22.3,-6l22.2,-6.3l22.1,-6.5l22.3,-7l22.2,-7.2l22.2,-7.6l22.2,-8l22.2,-8.5" class="g8_15"/>
</svg>