<?xml version="1.0" encoding="UTF-8" standalone="no"?>
<!DOCTYPE svg PUBLIC "-//W3C//DTD SVG 1.1//EN"
"http://www.w3.org/Graphics/SVG/1.1/DTD/svg11.dtd">
<svg viewBox="0 0 1466 825" version="1.1" xmlns="http://www.w3.org/2000/svg" xmlns:xlink="http://www.w3.org/1999/xlink">
<defs>
<clipPath id="c0_10"><path d="M0,825V0H1466.6V825Z"/></clipPath>
<clipPath id="c1_10"><path d="M60,246.5V0H1414.3V246.5Z"/></clipPath>
<style type="text/css"><![CDATA[
.g0_10{
fill: #FFFFFF;
}
.g1_10{
fill: #D9D9D9;
fill-opacity: 0.3;
}
.g2_10{
fill: none;
stroke: #D9D9D9;
stroke-width: 1.125;
stroke-linecap: butt;
stroke-linejoin: miter;
stroke-miterlimit: 7;
stroke-opacity: 0.3;
}
.g3_10{
fill: #47ACC9;
}
.g4_10{
fill: none;
stroke: #E5E9F0;
stroke-width: 1.125;
stroke-linecap: butt;
stroke-linejoin: miter;
stroke-miterlimit: 7;
}
.g5_10{
fill: none;
stroke: #47ACC9;
stroke-width: 0.779;
stroke-linecap: butt;
stroke-linejoin: miter;
}
]]></style>
</defs>
<g clip-path="url(#c0_10)">
<path fill-rule="evenodd" d="M0,0H1466.6V825H0V0Z" class="g0_10"/>
<path fill-rule="evenodd" d="M0,0H1466.7V825H0V0Z" class="g0_10"/>
</g>
<path fill-rule="evenodd" d="M742.1,246H70.4V3.2H1413.8V246H742.1Z" class="g1_10"/>
<path d="M742.1,246H70.4V3.2H1413.8V246H742.1Z" class="g2_10"/>
<g clip-path="url(#c1_10)">
<path fill-rule="evenodd" d="M738.9,242.8H67.2V0H1410.6V242.8H738.9Z" class="g3_10"/>
<path d="M738.9,242.8H67.2V0H1410.6V242.8H738.9Z" class="g4_10"/>
<path fill-rule="evenodd" d="M739.2,241.9H68.2V0H1410.1V241.9H739.2Z" class="g3_10"/>
</g>
<path fill-rule="evenodd" d="M67.7,179.3H60V94.7H75.4v84.6H67.7Z" class="g3_10"/>
<image preserveAspectRatio="none" x="37" y="48" width="508" height="286" xlink:href="img/1.png"/>
<image preserveAspectRatio="none" x="805" y="107" width="511" height="288" xlink:href="img/2.png"/>
<image preserveAspectRatio="none" x="807" y="490" width="506" height="287" xlink:href="img/3.png"/>
<image preserveAspectRatio="none" x="53" y="490" width="509" height="287" xlink:href="img/4.png"/>
<path d="M545.1,205.1l251.3,44.4" class="g5_10"/>
<path fill-rule="evenodd" d="M804.7,251l-9.7,2.9l1.5,-9l8.2,6.1Z" class="g3_10"/>
<path d="M1060.2,394.6V482" class="g5_10"/>
<path fill-rule="evenodd" d="M1060.2,490.5l-4.6,-9.1h9.1l-4.5,9.1Z" class="g3_10"/>
<path d="M807.2,633.9L570,634" class="g5_10"/>
<path fill-rule="evenodd" d="M561.5,634l9.1,-4.5v9.1L561.5,634Z" class="g3_10"/>
</svg>