<?xml version="1.0" encoding="UTF-8" standalone="no"?>
<!DOCTYPE svg PUBLIC "-//W3C//DTD SVG 1.1//EN"
"http://www.w3.org/Graphics/SVG/1.1/DTD/svg11.dtd">
<svg viewBox="0 0 1466 825" version="1.1" xmlns="http://www.w3.org/2000/svg" xmlns:xlink="http://www.w3.org/1999/xlink">
<defs>
<clipPath id="c0_9"><path d="M0,825V0H1466.6V825Z"/></clipPath>
<clipPath id="c1_9"><path d="M60,246.5V0H1414.3V246.5Z"/></clipPath>
<style type="text/css"><![CDATA[
.g0_9{
fill: #FFFFFF;
}
.g1_9{
fill: #D9D9D9;
fill-opacity: 0.3;
}
.g2_9{
fill: none;
stroke: #D9D9D9;
stroke-width: 1.125;
stroke-linecap: butt;
stroke-linejoin: miter;
stroke-miterlimit: 7;
stroke-opacity: 0.3;
}
.g3_9{
fill: #47ACC9;
}
.g4_9{
fill: none;
stroke: #E5E9F0;
stroke-width: 1.125;
stroke-linecap: butt;
stroke-linejoin: miter;
stroke-miterlimit: 7;
}
.g5_9{
fill: none;
stroke: #47ACC9;
stroke-width: 0.779;
stroke-linecap: butt;
stroke-linejoin: miter;
}
]]></style>
</defs>
<g clip-path="url(#c0_9)">
<path fill-rule="evenodd" d="M0,0H1466.6V825H0V0Z" class="g0_9"/>
<path fill-rule="evenodd" d="M0,0H1466.7V825H0V0Z" class="g0_9"/>
</g>
<path fill-rule="evenodd" d="M742.1,246H70.4V3.2H1413.8V246H742.1Z" class="g1_9"/>
<path d="M742.1,246H70.4V3.2H1413.8V246H742.1Z" class="g2_9"/>
<g clip-path="url(#c1_9)">
<path fill-rule="evenodd" d="M738.9,242.8H67.2V0H1410.6V242.8H738.9Z" class="g3_9"/>
<path d="M738.9,242.8H67.2V0H1410.6V242.8H738.9Z" class="g4_9"/>
<path fill-rule="evenodd" d="M739.2,241.9H68.2V0H1410.1V241.9H739.2Z" class="g3_9"/>
</g>
<path fill-rule="evenodd" d="M67.7,179.3H60V94.7H75.4v84.6H67.7Z" class="g3_9"/>
<image preserveAspectRatio="none" x="34" y="29" width="360" height="202" xlink:href="img/1.png"/>
<image preserveAspectRatio="none" x="580" y="29" width="359" height="202" xlink:href="img/2.png"/>
<image preserveAspectRatio="none" x="34" y="278" width="360" height="203" xlink:href="img/3.png"/>
<image preserveAspectRatio="none" x="499" y="270" width="360" height="203" xlink:href="img/4.png"/>
<image preserveAspectRatio="none" x="982" y="279" width="325" height="185" xlink:href="img/5.png"/>
<image preserveAspectRatio="none" x="34" y="528" width="360" height="202" xlink:href="img/6.png"/>
<image preserveAspectRatio="none" x="1042" y="511" width="358" height="203" xlink:href="img/7.png"/>
<image preserveAspectRatio="none" x="580" y="506" width="360" height="203" xlink:href="img/8.png"/>
<path d="M393.9,129.9L572,130" class="g5_9"/>
<path fill-rule="evenodd" d="M580.4,130l-9,4.6v-9.1l9,4.5Z" class="g3_9"/>
<path d="M939.2,129.9h205.1V270.6" class="g5_9"/>
<path fill-rule="evenodd" d="M1144.3,279.1l-4.5,-9.1h9.1l-4.6,9.1Z" class="g3_9"/>
<path d="M981.5,380.1H867.2" class="g5_9"/>
<path fill-rule="evenodd" d="M858.7,380.1l9.1,-4.5v9.1l-9.1,-4.6Z" class="g3_9"/>
<path d="M499,371.4H402.3" class="g5_9"/>
<path fill-rule="evenodd" d="M393.8,371.4l9.1,-4.5V376l-9.1,-4.6Z" class="g3_9"/>
<path d="M214,480.6l.1,38.5" class="g5_9"/>
<path fill-rule="evenodd" d="M214.1,527.6l-4.5,-9.1h9.1l-4.6,9.1Z" class="g3_9"/>
<path d="M394,629l177.9,-.1" class="g5_9"/>
<path fill-rule="evenodd" d="M580.4,628.9l-9.1,4.6v-9.1l9.1,4.5Z" class="g3_9"/>
<path d="M939.6,607.4l93.7,-1.1" class="g5_9"/>
<path fill-rule="evenodd" d="M1041.8,606.3l-9.1,4.6v-9.1l9.1,4.5Z" class="g3_9"/>
</svg>