<?xml version="1.0" encoding="UTF-8" standalone="no"?>
<!DOCTYPE svg PUBLIC "-//W3C//DTD SVG 1.1//EN"
"http://www.w3.org/Graphics/SVG/1.1/DTD/svg11.dtd">
<svg viewBox="0 0 1466 825" version="1.1" xmlns="http://www.w3.org/2000/svg" xmlns:xlink="http://www.w3.org/1999/xlink">
<defs>
<clipPath id="c0_6"><path d="M0,825V0H1466.6V825Z"/></clipPath>
<clipPath id="c1_6"><path d="M60,246.5V0H1414.3V246.5Z"/></clipPath>
<style type="text/css"><![CDATA[
.g0_6{
fill: #FFFFFF;
}
.g1_6{
fill: #D9D9D9;
fill-opacity: 0.3;
}
.g2_6{
fill: none;
stroke: #D9D9D9;
stroke-width: 1.125;
stroke-linecap: butt;
stroke-linejoin: miter;
stroke-miterlimit: 7;
stroke-opacity: 0.3;
}
.g3_6{
fill: #47ACC9;
}
.g4_6{
fill: none;
stroke: #E5E9F0;
stroke-width: 1.125;
stroke-linecap: butt;
stroke-linejoin: miter;
stroke-miterlimit: 7;
}
.g5_6{
fill: none;
stroke: #47ACC9;
stroke-width: 0.779;
stroke-linecap: butt;
stroke-linejoin: miter;
}
]]></style>
</defs>
<g clip-path="url(#c0_6)">
<path fill-rule="evenodd" d="M0,0H1466.6V825H0V0Z" class="g0_6"/>
<path fill-rule="evenodd" d="M0,0H1466.7V825H0V0Z" class="g0_6"/>
</g>
<path fill-rule="evenodd" d="M742.1,246H70.4V3.2H1413.8V246H742.1Z" class="g1_6"/>
<path d="M742.1,246H70.4V3.2H1413.8V246H742.1Z" class="g2_6"/>
<g clip-path="url(#c1_6)">
<path fill-rule="evenodd" d="M738.9,242.8H67.2V0H1410.6V242.8H738.9Z" class="g3_6"/>
<path d="M738.9,242.8H67.2V0H1410.6V242.8H738.9Z" class="g4_6"/>
<path fill-rule="evenodd" d="M739.2,241.9H68.2V0H1410.1V241.9H739.2Z" class="g3_6"/>
</g>
<path fill-rule="evenodd" d="M67.7,179.3H60V94.7H75.4v84.6H67.7Z" class="g3_6"/>
<image preserveAspectRatio="none" x="50" y="334" width="163" height="169" xlink:href="img/1.png"/>
<image preserveAspectRatio="none" x="330" y="334" width="163" height="169" xlink:href="img/2.png"/>
<image preserveAspectRatio="none" x="611" y="334" width="163" height="169" xlink:href="img/3.png"/>
<image preserveAspectRatio="none" x="875" y="336" width="163" height="169" xlink:href="img/4.png"/>
<image preserveAspectRatio="none" x="1200" y="538" width="148" height="221" xlink:href="img/5.png"/>
<path d="M212.6,418.4l109,.1" class="g5_6"/>
<path fill-rule="evenodd" d="M330,418.5l-9.1,4.5v-9.1l9.1,4.6Z" class="g3_6"/>
<path d="M490.7,415.2l108.9,.1" class="g5_6"/>
<path fill-rule="evenodd" d="M608.1,415.3l-9.1,4.5v-9.1l9.1,4.6Z" class="g3_6"/>
<path d="M773.6,411.6l93.1,.1" class="g5_6"/>
<path fill-rule="evenodd" d="M875.2,411.7l-9.1,4.6v-9.1l9.1,4.5Z" class="g3_6"/>
<path d="M1038.3,420.7L1166,524.3" class="g5_6"/>
<path fill-rule="evenodd" d="M1172.6,529.7l-9.9,-2.2l5.7,-7.1l4.2,9.3Z" class="g3_6"/>
</svg>